<svg xmlns="http://www.w3.org/2000/svg" viewBox="0 0 512 512" role="img" aria-labelledby="title desc">
  <title id="title">.github sticker</title>
  <desc id="desc">OmicVerse repository hex sticker for .github.</desc>
  <defs>
    <linearGradient id="bg" x1="112" y1="90" x2="398" y2="430" gradientUnits="userSpaceOnUse">
      <stop offset="0" stop-color="#050706"/>
      <stop offset=".58" stop-color="#020403"/>
      <stop offset="1" stop-color="#000000"/>
    </linearGradient>
  </defs>
  <polygon points="256,34 450,146 450,368 256,480 62,368 62,146" fill="#000000" opacity=".34"/>
  <polygon points="256,22 458,139 458,373 256,490 54,373 54,139" fill="url(#bg)" stroke="#0B0F0A" stroke-width="19" stroke-linejoin="round"/>
  <polygon points="256,22 458,139 458,373 256,490 54,373 54,139" fill="none" stroke="#E8FFE0" stroke-width="12" stroke-linejoin="round"/>
  <g opacity=".22" stroke="#37C96B" stroke-width="2.2">
    <path d="M112 166h288M100 222h312M100 278h312M112 334h288"/>
    <path d="M152 126v236M204 104v274M256 96v286M308 104v274M360 126v236"/>
  </g>
  
  <g id="motif">
    <rect x="150" y="151" width="212" height="143" rx="14" fill="#FFFFFF" opacity=".18" stroke="#FFFFFF" stroke-width="7"/>
    <path d="M176 190h98M176 224h142M176 258h90" stroke="#FFFFFF" stroke-width="8" stroke-linecap="round"/>
    <circle cx="338" cy="190" r="24" fill="#FFD43B" stroke="#FFFFFF" stroke-width="5"/>
    <path d="M338 154v18M338 208v18M302 190h18M356 190h18M313 165l13 13M350 202l13 13M363 165l-13 13M326 202l-13 13" stroke="#FFFFFF" stroke-width="5" stroke-linecap="round"/>
    <path d="M177 326h158" stroke="#34C759" stroke-width="9" stroke-linecap="round"/>
  </g>
  <path id="label" d="M313.06,377.45 Q312.80,379.53 311.88,380.98 Q310.95,382.42 309.22,383.42 Q306.19,385.17 302.83,383.93 Q299.46,382.68 297.33,378.98 Q295.18,375.26 295.79,371.75 Q296.40,368.23 299.44,366.47 Q301.17,365.47 302.88,365.40 Q304.59,365.31 306.53,366.15 L305.11,363.69 L310.44,360.61 L319.05,375.52 Q321.36,379.51 320.05,383.08 Q318.74,386.64 313.95,389.41 Q312.39,390.31 310.80,390.91 Q309.22,391.51 307.47,391.87 L305.09,387.74 Q306.94,387.74 308.50,387.36 Q310.06,386.98 311.40,386.21 Q314.01,384.70 314.56,382.86 Q315.12,381.02 313.72,378.59 L313.06,377.45 Z M303.61,369.15 Q301.97,370.10 301.75,371.85 Q301.54,373.59 302.82,375.81 Q304.13,378.09 305.70,378.75 Q307.27,379.41 308.97,378.43 Q310.62,377.48 310.84,375.73 Q311.06,373.99 309.79,371.78 Q308.51,369.57 306.89,368.88 Q305.27,368.20 303.61,369.15 Z M315.53,357.67 L320.83,354.62 L330.40,371.19 L325.10,374.25 L315.53,357.67 Z M311.81,351.22 L317.10,348.16 L319.60,352.48 L314.30,355.54 L311.81,351.22 Z M328.99,343.63 L331.71,348.34 L337.17,345.18 L339.36,348.97 L333.89,352.12 L337.95,359.15 Q338.62,360.31 339.31,360.45 Q340.01,360.59 341.37,359.80 L344.10,358.23 L346.28,362.02 L341.74,364.65 Q338.60,366.46 336.54,365.91 Q334.47,365.35 332.66,362.21 L328.60,355.18 L325.96,356.70 L323.77,352.92 L326.41,351.39 L323.69,346.68 L328.99,343.63 Z M360.82,340.17 L366.65,350.27 L361.32,353.34 L360.37,351.70 L356.87,345.65 Q355.62,343.47 355.05,342.71 Q354.49,341.95 354.03,341.70 Q353.42,341.36 352.72,341.38 Q352.02,341.40 351.34,341.80 Q349.68,342.75 349.47,344.58 Q349.26,346.41 350.57,348.67 L355.28,356.83 L349.98,359.89 L336.69,336.85 L341.98,333.80 L347.11,342.68 Q347.47,340.54 348.42,339.07 Q349.37,337.61 351.00,336.67 Q353.87,335.01 356.38,335.91 Q358.88,336.81 360.82,340.17 Z M367.66,341.08 L361.81,330.95 L367.14,327.88 L368.10,329.54 Q368.87,330.88 370.04,332.93 Q371.20,334.97 371.59,335.65 Q372.74,337.65 373.36,338.47 Q373.97,339.29 374.45,339.55 Q375.07,339.88 375.76,339.86 Q376.45,339.83 377.13,339.44 Q378.79,338.48 379.00,336.66 Q379.21,334.84 377.90,332.58 L373.18,324.39 L378.48,321.33 L388.05,337.91 L382.75,340.97 L381.37,338.57 Q381.00,340.71 380.06,342.18 Q379.12,343.64 377.51,344.57 Q374.63,346.23 372.12,345.33 Q369.60,344.44 367.66,341.08 Z M399.99,326.46 Q401.69,325.48 401.87,323.72 Q402.05,321.95 400.68,319.58 Q399.31,317.22 397.70,316.50 Q396.08,315.77 394.38,316.75 Q392.68,317.73 392.49,319.51 Q392.30,321.28 393.66,323.64 Q395.02,325.99 396.65,326.72 Q398.29,327.44 399.99,326.46 Z M390.27,317.76 Q390.53,315.68 391.46,314.22 Q392.40,312.77 394.13,311.77 Q397.19,310.00 400.57,311.30 Q403.94,312.59 406.15,316.42 Q408.37,320.26 407.80,323.83 Q407.24,327.40 404.18,329.17 Q402.45,330.17 400.72,330.25 Q398.99,330.33 397.05,329.51 L398.44,331.91 L393.14,334.97 L379.84,311.94 L385.14,308.88 L390.27,317.76 Z" fill="#FFFFFF"/>
</svg>
